<?xml version="1.0" encoding="UTF-8" standalone="no"?>
<!-- Created with Inkscape (http://www.inkscape.org/) -->

<svg
   width="124mm"
   height="128mm"
   viewBox="0 0 124 128"
   version="1.1"
   id="svg1"
   xml:space="preserve"
   inkscape:version="1.3 (0e150ed6c4, 2023-07-21)"
   sodipodi:docname="present.svg"
   xmlns:inkscape="http://www.inkscape.org/namespaces/inkscape"
   xmlns:sodipodi="http://sodipodi.sourceforge.net/DTD/sodipodi-0.dtd"
   xmlns="http://www.w3.org/2000/svg"
   xmlns:svg="http://www.w3.org/2000/svg"><sodipodi:namedview
     id="namedview1"
     pagecolor="#ffffff"
     bordercolor="#000000"
     borderopacity="0.25"
     inkscape:showpageshadow="2"
     inkscape:pageopacity="0.0"
     inkscape:pagecheckerboard="0"
     inkscape:deskcolor="#d1d1d1"
     inkscape:document-units="mm"
     inkscape:zoom="0.71090067"
     inkscape:cx="392.45989"
     inkscape:cy="443.09988"
     inkscape:window-width="2503"
     inkscape:window-height="1010"
     inkscape:window-x="1977"
     inkscape:window-y="34"
     inkscape:window-maximized="1"
     inkscape:current-layer="layer1" /><defs
     id="defs1" /><g
     inkscape:label="Camada 1"
     inkscape:groupmode="layer"
     id="layer1"><path
       style="fill:#fcdb99"
       d="m 61.869942,123.00517 c 0.5457,-0.0571 1.43867,-0.0571 1.98438,0 0.5457,0.0571 0.0992,0.10379 -0.99219,0.10379 -1.09141,0 -1.53789,-0.0467 -0.99219,-0.10379 z M 39.384,120.6268 c 0.402183,-0.0608 0.997495,-0.0592 1.322916,0.004 0.325421,0.0628 -0.0036,0.11256 -0.731242,0.11058 -0.727604,-0.002 -0.993858,-0.0534 -0.591674,-0.11419 z m 45.243756,0 c 0.40218,-0.0608 0.99749,-0.0592 1.32291,0.004 0.32542,0.0628 -0.004,0.11256 -0.73124,0.11058 -0.7276,-0.002 -0.99386,-0.0534 -0.59167,-0.11419 z m -40.021525,-2.05618 c 0.509131,-0.58048 0.955458,-1.10634 0.991839,-1.16858 0.03638,-0.0622 0.123491,-0.0558 0.19358,0.0143 0.07009,0.0701 -0.376238,0.59595 -0.991838,1.16857 l -1.119274,1.04115 z m 35.620855,-0.0996 c -0.829864,-0.84985 -0.924734,-1.05113 -0.56122,-1.19062 0.63928,-0.24532 0.85111,-0.19774 0.39724,0.0892 -0.32661,0.2065 -0.23874,0.40899 0.51493,1.18657 0.4998,0.51567 0.85001,0.93758 0.77824,0.93758 -0.0718,0 -0.57991,-0.46024 -1.12919,-1.02275 z m 13.32671,-0.13956 c 0,-0.0572 0.18478,-0.17489 0.41062,-0.26156 0.23546,-0.0904 0.34166,-0.046 0.24897,0.10399 -0.15538,0.25141 -0.65959,0.37186 -0.65959,0.15757 z m -12.03744,-1.7092 c 0.58269,-0.27012 1.3566,-0.56816 1.7198,-0.66231 0.36319,-0.0942 0.18361,0.0498 -0.39908,0.31992 -0.58269,0.27012 -1.3566,0.56816 -1.71979,0.66231 -0.3632,0.0942 -0.18361,-0.0498 0.39907,-0.31992 z m 2.51244,-0.93664 c 0,-0.0572 0.18478,-0.17489 0.41062,-0.26155 0.23546,-0.0904 0.34166,-0.046 0.24897,0.10398 -0.15538,0.25141 -0.65959,0.37186 -0.65959,0.15757 z m 19.050004,-3.70007 c 0,-0.055 0.20836,-0.26331 0.46302,-0.46302 0.41965,-0.32911 0.42901,-0.31975 0.0999,0.0999 -0.34564,0.44073 -0.56292,0.58089 -0.56292,0.36313 z m -83.723614,-4.84964 c -0.143585,-0.37708 -0.113194,-0.40747 0.148112,-0.14811 0.180822,0.17948 0.262116,0.39297 0.180654,0.47443 -0.08146,0.0815 -0.229407,-0.0654 -0.328766,-0.32632 z m -2.564301,-1.86349 c -0.329108,-0.41964 -0.319749,-0.429 0.09989,-0.0999 0.254661,0.19971 0.46302,0.40807 0.46302,0.46302 0,0.21776 -0.217272,0.0776 -0.562915,-0.36313 z M 113.71372,95.019792 c 0.005,-0.43657 0.0647,-0.58313 0.13177,-0.3257 0.0671,0.25743 0.0627,0.61462 -0.01,0.79375 -0.0725,0.17913 -0.12737,-0.0315 -0.12197,-0.46805 z M 11.594351,93.299972 c 0,-0.50933 0.05445,-0.71769 0.121,-0.46303 0.06655,0.25467 0.06655,0.67138 0,0.92605 -0.06655,0.25466 -0.121,0.0463 -0.121,-0.46302 z M 113.9881,90.654132 c 0,-0.50932 0.0545,-0.71768 0.121,-0.46302 0.0665,0.25466 0.0665,0.67138 0,0.92604 -0.0666,0.25466 -0.121,0.0463 -0.121,-0.46302 z M 11.329768,88.802052 c 0,-0.50932 0.05445,-0.71768 0.121,-0.46302 0.06655,0.25466 0.06655,0.67138 0,0.92604 -0.06655,0.25466 -0.121,0.0463 -0.121,-0.46302 z m 102.922922,-2.64583 c 0,-0.50933 0.0545,-0.71769 0.121,-0.46303 0.0665,0.25467 0.0665,0.67138 0,0.92605 -0.0666,0.25466 -0.121,0.0463 -0.121,-0.46302 z M 11.065185,84.304132 c 0,-0.50932 0.05445,-0.71768 0.121,-0.46302 0.06655,0.25466 0.06655,0.67138 0,0.92604 -0.06655,0.25466 -0.121,0.0463 -0.121,-0.46302 z m 103.452085,-2.38125 c 0,-0.50932 0.0545,-0.71768 0.121,-0.46302 0.0666,0.25466 0.0666,0.67138 0,0.92604 -0.0666,0.25466 -0.121,0.0463 -0.121,-0.46302 z M 10.800601,80.070802 c 0,-0.50932 0.05445,-0.71768 0.121,-0.46302 0.06655,0.25466 0.06655,0.67138 0,0.92604 -0.06655,0.25466 -0.121,0.0463 -0.121,-0.46302 z m 103.981249,-2.64583 c 0,-0.50933 0.0545,-0.71769 0.121,-0.46302 0.0666,0.25466 0.0666,0.67138 0,0.92604 -0.0666,0.25466 -0.121,0.0463 -0.121,-0.46302 z M 10.536018,75.572882 c 0,-0.50932 0.05445,-0.71768 0.121,-0.46302 0.06655,0.25466 0.06655,0.67138 0,0.92604 -0.06655,0.25466 -0.121,0.0463 -0.121,-0.46302 z m 104.510422,-2.64583 c 0,-0.50932 0.0545,-0.71768 0.121,-0.46302 0.0666,0.25466 0.0666,0.67138 0,0.92604 -0.0666,0.25466 -0.121,0.0463 -0.121,-0.46302 z M 10.271435,71.074972 c 0,-0.50933 0.05445,-0.71769 0.121,-0.46302 0.06655,0.25466 0.06655,0.67138 0,0.92604 -0.06655,0.25466 -0.121,0.0463 -0.121,-0.46302 z m 105.039585,-2.64584 c 0,-0.50932 0.0545,-0.71768 0.121,-0.46302 0.0666,0.25466 0.0666,0.67138 0,0.92604 -0.0665,0.25467 -0.121,0.0463 -0.121,-0.46302 z M 10.006851,66.577052 c 0,-0.50932 0.05445,-0.71768 0.121,-0.46302 0.06655,0.25466 0.06655,0.67138 0,0.92604 -0.06655,0.25466 -0.121,0.0463 -0.121,-0.46302 z m 105.507369,-2.23334 c 0,-0.2097 0.10796,-0.44799 0.23991,-0.52954 0.13195,-0.0815 0.17759,0.09 0.10143,0.38126 -0.16156,0.6178 -0.34134,0.6959 -0.34134,0.14828 z m 0.57094,-1.99999 c 0,-0.36381 0.0601,-0.51263 0.13345,-0.33073 0.0734,0.1819 0.0734,0.47955 0,0.66146 -0.0734,0.1819 -0.13345,0.0331 -0.13345,-0.33073 z M 9.1934945,60.756222 c 0,-0.36381 0.06005,-0.51263 0.133452,-0.33073 0.0734,0.1819 0.0734,0.47955 0,0.66146 -0.0734,0.1819 -0.133452,0.0331 -0.133452,-0.33073 z M 116.34975,58.639552 c 0,-0.3638 0.06,-0.51263 0.13345,-0.33073 0.0734,0.1819 0.0734,0.47956 0,0.66146 -0.0734,0.1819 -0.13345,0.0331 -0.13345,-0.33073 z M 8.9289105,57.052052 c 0,-0.3638 0.06005,-0.51263 0.133453,-0.33073 0.0734,0.1819 0.0734,0.47956 0,0.66146 -0.0734,0.1819 -0.133453,0.0331 -0.133453,-0.33073 z m -3.903373,-2.71198 -0.504028,-0.59531 0.595313,0.50403 c 0.559447,0.47366 0.715761,0.68659 0.504028,0.68659 -0.05021,0 -0.318097,-0.26789 -0.595313,-0.59531 z M 122.41427,46.314382 c 0.0127,-0.30823 0.0754,-0.37092 0.15986,-0.15986 0.0764,0.191 0.067,0.4192 -0.0209,0.50712 -0.0879,0.0879 -0.15045,-0.0683 -0.13897,-0.34726 z M 2.3632535,42.896844 c 9.61e-4,-1.16416 0.04748,-1.6075 0.103369,-0.98519 0.05589,0.62231 0.05511,1.57481 -0.0017,2.11667 -0.05685,0.54185 -0.102583,0.0327 -0.101622,-1.13148 z M 122.43516,38.266634 c 0,-0.3638 0.0601,-0.51263 0.13345,-0.33072 0.0734,0.1819 0.0734,0.47955 0,0.66145 -0.0734,0.1819 -0.13345,0.0331 -0.13345,-0.33073 z M 2.8017185,34.562474 c 0,-0.14552 0.126089,-0.26459 0.280198,-0.26459 0.154109,0 0.206614,0.11907 0.116677,0.26459 -0.08994,0.14552 -0.216026,0.26458 -0.280198,0.26458 -0.06417,0 -0.116677,-0.11906 -0.116677,-0.26458 z M 21.600142,23.545344 c -0.04282,-2.73436 1.686352,-8.58812 3.843696,-13.012037 1.212132,-2.4856318 1.784385,-3.3212818 3.365922,-4.9151858 2.457151,-2.4763671 3.923093,-3.2067042 6.403414,-3.1902052 2.135663,0.01421 3.690407,0.590128 6.614583,2.4502282 3.375132,2.146957 7.715658,6.0883078 10.72953,9.7427998 l 1.555881,1.88659 -0.368145,1.02382 c -0.20248,0.56311 -0.429285,1.22281 -0.504011,1.46601 -0.101778,0.33125 -1.052685,-0.47196 -3.790185,-3.20146 -4.204047,-4.191781 -7.206546,-6.5187878 -10.401194,-8.0611718 -1.99789,-0.964587 -2.455721,-1.0839 -4.101042,-1.068756 -2.531601,0.0233 -4.365524,0.945056 -6.606334,3.320432 -2.794824,2.9626638 -4.784261,6.8675458 -6.108778,11.9903758 -0.386242,1.49386 -0.625237,2.08577 -0.633337,1.56856 z m 81.389458,-1.18863 c -1.50291,-6.29715 -4.979664,-12.167011 -8.571934,-14.4721688 -1.6465,-1.056554 -4.07491,-1.692549 -5.62637,-1.47353 -3.1484,0.444461 -9.06657,4.6920438 -14.472924,10.3874988 -2.02079,2.12886 -2.17069,2.235 -2.18281,1.5456 -0.008,-0.43986 -0.28483,-0.99215 -0.68286,-1.36104 l -0.66985,-0.62079 2.0999,-2.49752 c 3.22634,-3.83726 9.231174,-8.7763248 13.101444,-10.77615 1.95018,-1.0076869 4.13408,-1.093343 6.38679,-0.250498 1.89021,0.707217 4.53112,3.1318122 6.22018,5.7106762 2.176094,3.3224838 4.122884,8.6358918 4.759614,12.9905118 0.41315,2.82551 0.22156,3.25909 -0.36118,0.81741 z M 61.609002,6.3267772 c 0.40218,-0.06081 0.99749,-0.05919 1.32291,0.0036 0.32542,0.0628 -0.004,0.11256 -0.73124,0.110574 -0.7276,-0.002 -0.99386,-0.05337 -0.59167,-0.114186 z"
       id="path11" /><path
       style="fill:#fdd273"
       d="m 35.610049,119.92502 c -2.68111,-0.80891 -6.160845,-2.61285 -10.033665,-5.20161 -2.520408,-1.68474 -3.414895,-2.44778 -4.125287,-3.51907 -1.861529,-2.80723 -1.863751,-2.82232 -3.435087,-23.324548 -2.734623,-35.68035 -3.045253,-39.96362 -3.044358,-41.97852 0.0021,-4.654458 2.433864,-8.819458 6.561843,-11.238618 0.634433,-0.3718 1.178885,-0.63574 1.209894,-0.58653 1.181453,1.87491 1.730763,2.50307 2.759462,3.15559 2.285022,1.44942 3.290618,1.61949 10.628188,1.79749 l 6.738697,0.16348 -2.637656,1.57244 c -1.450711,0.86484 -3.197962,2.14732 -3.88278,2.84995 -1.64938,1.692268 -3.071085,4.603278 -3.331984,6.822398 -0.128209,1.0905 0.296415,13.53802 1.160456,34.0179 1.175847,27.870428 1.423874,32.427148 1.809246,33.239258 0.51452,1.08427 1.271326,1.85375 2.401156,2.44137 l 0.79375,0.41282 -0.79375,-0.0126 c -0.436562,-0.007 -1.686718,-0.28196 -2.778125,-0.61125 z m 51.196877,0.21098 c 1.12867,-0.58702 1.88653,-1.35688 2.39916,-2.43715 0.38269,-0.80647 0.63466,-5.43429 1.80973,-33.239268 0.86654,-20.50447 1.28958,-32.88213 1.15826,-33.88982 -0.27058,-2.07639 -1.72706,-5.01718 -3.38126,-6.827138 l -1.30436,-1.42717 3.76028,-0.15908 c 6.96142,-0.29451 10.788604,-1.85838 13.104564,-5.35484 l 0.7974,-1.20387 0.99527,0.87147 c 1.38634,1.21389 2.92883,3.69351 3.55132,5.70889 0.83656,2.70846 0.98095,0.12353 -2.64889,47.422538 -1.42321,18.545208 -1.46998,18.854918 -3.24843,21.510058 -2.24756,3.3555 -13.299004,9.44917 -17.120014,9.43983 -0.65878,-0.002 -0.65726,-0.007 0.12697,-0.41445 z M 60.613172,29.621514 c -2.22196,-0.13314 -6.293221,-0.63619 -7.337686,-0.90666 -0.977951,-0.25325 -1.39811,-0.73636 -1.804136,-2.07443 -0.199405,-0.65715 -0.206065,-0.65264 -0.228143,0.15446 l -0.02274,0.83138 -0.859896,-0.45206 c -0.472942,-0.24862 -1.812395,-1.07296 -2.976562,-1.83185 -4.921741,-3.20835 -13.112861,-6.5594 -16.729991,-6.84437 -2.454967,-0.1934 -3.939724,0.34382 -5.792114,2.09573 -1.52101,1.43851 -2.602287,3.54306 -2.975454,5.79129 l -0.237453,1.43059 -0.03093,-1.61972 c -0.05781,-3.02709 1.811643,-8.96186 3.975945,-12.622066 1.50501,-2.545231 4.089053,-5.2003858 5.965438,-6.1296048 1.232786,-0.610497 1.903697,-0.764554 3.389144,-0.778227 1.645321,-0.01514 2.103152,0.104169 4.101042,1.068756 3.194648,1.542384 6.197147,3.8693908 10.401194,8.0611718 2.009876,2.004 3.693417,3.5042 3.741202,3.33375 0.410278,-1.46338 0.87935,-2.38679 1.239275,-2.43962 0.236365,-0.0347 1.188199,0.12507 2.115187,0.35503 2.416188,0.59939 10.020358,0.58236 12.484298,-0.028 2.33663,-0.57879 3.06571,-0.22806 3.10477,1.49357 0.0103,0.45566 0.45939,0.10342 2.18281,-1.71216 5.406354,-5.695455 11.324524,-9.9430378 14.472924,-10.3874988 3.68434,-0.520118 7.83515,2.272098 10.73724,7.2228628 2.117924,3.613006 4.097774,9.695646 4.056264,12.461926 l -0.0218,1.45521 -0.33066,-1.36317 c -1.05171,-4.33582 -3.947774,-7.13405 -7.694754,-7.43482 -2.68682,-0.21567 -8.0614,1.3891 -13.09626,3.91035 -2.07904,1.0411 -7.378964,4.42261 -8.400524,5.35978 -0.39768,0.36484 -0.59531,0.42938 -0.59531,0.19443 0,-0.2607 -0.12563,-0.23802 -0.48552,0.0877 -0.76546,0.69273 -8.6769,1.53614 -12.34677,1.31625 z m -8.241398,-6.96529 c 0.174349,-0.87944 0.163606,-0.89758 -0.213475,-0.36043 -0.218384,0.31108 -0.458674,1.26358 -0.533977,2.11666 l -0.136914,1.55106 0.350388,-1.19062 c 0.192714,-0.65485 0.433004,-1.60735 0.533978,-2.11667 z m 0.931609,-7.07761 c -0.329108,-0.41964 -0.319749,-0.429 0.0999,-0.0999 0.254661,0.19972 0.46302,0.40808 0.46302,0.46302 0,0.21776 -0.217272,0.0776 -0.562915,-0.36313 z"
       id="path10" /><path
       style="fill:#f3a552"
       d="m 38.388174,120.136 c -1.12983,-0.58762 -1.886636,-1.3571 -2.401156,-2.44137 -0.385372,-0.81211 -0.633399,-5.36883 -1.809246,-33.239258 -0.864041,-20.47988 -1.288665,-32.9274 -1.160456,-34.0179 0.260899,-2.21912 1.682604,-5.13013 3.331984,-6.822398 0.684818,-0.70263 2.432069,-1.98511 3.88278,-2.84995 l 2.637656,-1.57244 -6.738697,-0.16348 c -7.348448,-0.17826 -8.341471,-0.34699 -10.646376,-1.80903 -1.74835,-1.109 -3.235288,-3.50489 -3.663988,-5.90375 -0.703021,-3.93386 0.555762,-8.37206 3.041227,-10.72271 1.85239,-1.75191 3.337147,-2.28913 5.792114,-2.09573 3.61713,0.28497 11.80825,3.63602 16.729991,6.84437 1.164167,0.75889 2.50362,1.58323 2.976562,1.83185 l 0.859896,0.45206 0.01161,-0.83138 0.01161,-0.83137 0.381278,1.05833 c 0.209703,0.58209 0.383071,1.08391 0.385262,1.11517 0.04581,0.65363 5.831447,1.43627 10.587317,1.43218 4.56384,-0.004 9.65696,-0.62553 10.36337,-1.26482 0.35952,-0.32536 0.48454,-0.34775 0.48454,-0.0868 0,0.23495 0.19763,0.17041 0.59531,-0.19443 1.02156,-0.93717 6.321484,-4.31868 8.400524,-5.35978 5.03486,-2.52125 10.40944,-4.12602 13.09626,-3.91035 3.93674,0.316 6.906994,3.38699 7.820794,8.08603 0.34818,1.79041 0.19966,5.0078 -0.29069,6.29753 -0.30575,0.80418 -0.33779,0.75784 1.3599,1.96661 0.80742,0.57489 0.50951,1.2885 -1.30583,3.12797 -2.56464,2.59873 -5.799824,3.66828 -11.872994,3.92521 l -3.76028,0.15908 1.30436,1.42717 c 1.6542,1.809958 3.11068,4.750748 3.38126,6.827138 0.13132,1.00774 -0.29218,13.3963 -1.15963,33.92219 -1.26521,29.938128 -1.40453,32.408008 -1.87959,33.323428 -1.70643,3.28822 -5.74017,3.64683 -8.53902,0.75915 -0.49307,-0.50872 -0.8451,-0.9675 -0.78228,-1.01952 0.0628,-0.052 1.2453,-0.52788 2.62774,-1.05747 1.44469,-0.55343 2.65313,-1.18674 2.84178,-1.4893 0.49609,-0.7956 2.37668,-61.773828 1.96595,-63.745988 -0.72922,-3.50145 -2.08682,-5.02169 -6.87117,-7.694338 -3.317184,-1.85304 -4.222344,-2.50816 -2.537314,-1.83637 1.06085,0.42294 8.972964,0.67801 8.727824,0.28136 -0.1005,-0.1626 -0.89441,-0.71275 -1.76426,-1.22255 -1.30027,-0.76207 -2.01568,-0.97813 -4.02269,-1.21489 -1.34264,-0.15839 -3.186364,-0.45667 -4.097174,-0.66285 -1.66419,-0.37673 -4.29722,-1.54539 -4.29698,-1.9072 7e-5,-0.10669 0.622,-0.72976 1.38206,-1.38461 4.94247,-4.25825 14.025014,-8.57967 18.748914,-8.92063 1.28692,-0.0929 2.37075,-0.0249 3.02045,0.18955 2.11892,0.69931 4.39152,3.57655 4.789184,6.06338 0.095,0.59411 0.27315,1.0802 0.39588,1.0802 0.12274,0 0.47887,-0.84188 0.79141,-1.87084 0.84596,-2.78515 0.65358,-5.90477 -0.50989,-8.26811 -1.413244,-2.87069 -3.843354,-4.34185 -6.652524,-4.02735 -4.82344,0.54001 -14.86306,5.44615 -19.008244,9.28891 l -1.40826,1.30552 0.26367,1.16015 c 0.28244,1.24277 0.0926,2.08311 -0.60057,2.65839 -0.23672,0.19646 -0.36708,0.55673 -0.28968,0.80059 0.0833,0.26259 -0.11701,0.6855 -0.49135,1.03717 l -0.63206,0.5938 -0.65836,-0.84123 -0.65836,-0.84123 -3.01151,0.31142 c -3.62834,0.37519 -7.34941,0.36965 -11.04976,-0.0165 l -2.746582,-0.28659 -0.600645,0.75329 c -0.593937,0.74486 -0.606847,0.74766 -1.156023,0.25067 -0.305457,-0.27644 -0.555377,-0.65734 -0.555377,-0.84645 0,-0.18912 -0.309131,-0.65298 -0.686958,-1.0308 -0.648591,-0.64859 -0.676929,-0.78683 -0.507382,-2.4751 l 0.179576,-1.78814 -1.102658,-0.99619 c -3.982038,-3.59753 -13.73331,-8.33738 -18.596326,-9.0392 -2.788348,-0.40241 -5.430138,1.15216 -6.845237,4.0281 -0.847901,1.72321 -0.883561,1.91953 -0.879755,4.84337 0.0035,2.65744 0.08453,3.21662 0.633579,4.37027 l 0.629611,1.32292 0.217862,-1.15577 c 0.482125,-2.5577 2.322744,-5.14576 4.361577,-6.13275 1.053346,-0.50991 1.502018,-0.56903 3.37273,-0.44442 4.997508,0.33289 14.174842,4.75686 19.471132,9.38613 0.791106,0.69147 1.338049,1.08966 1.215427,0.88486 -0.184433,-0.30803 -0.0037,-0.34231 1.045948,-0.19843 0.697893,0.0956 1.457496,0.17392 1.688006,0.17392 0.23051,0 -1.423217,0.90042 -3.674949,2.00094 -4.371257,2.13641 -10.350801,5.40593 -11.26109,6.15737 -1.224105,1.010498 -2.430628,2.950978 -2.890007,4.648058 -0.521429,1.92632 -0.57044,-0.53905 0.94113,47.34091 0.560185,17.744278 0.576817,17.904368 1.903112,18.318858 1.035387,0.32359 4.434672,2.04323 4.434672,2.24343 0,0.36156 -2.17567,2.15669 -3.06343,2.52762 -1.170898,0.48923 -2.960136,0.46888 -3.948028,-0.0449 z M 19.24766,105.73541 c 0,-0.3638 0.06005,-0.51263 0.133452,-0.33073 0.0734,0.1819 0.0734,0.47956 0,0.66146 -0.0734,0.1819 -0.133452,0.0331 -0.133452,-0.33073 z m 86.51875,0 c 0,-0.3638 0.0601,-0.51263 0.13346,-0.33073 0.0734,0.1819 0.0734,0.47956 0,0.66146 -0.0734,0.1819 -0.13346,0.0331 -0.13346,-0.33073 z M 18.99288,102.4281 c 0.0054,-0.43656 0.06469,-0.58313 0.131774,-0.32569 0.06708,0.25743 0.06267,0.61462 -0.0098,0.79376 -0.07248,0.17913 -0.127362,-0.0315 -0.12197,-0.46807 z m 87.04792,0 c 0.005,-0.43656 0.0647,-0.58313 0.13177,-0.32569 0.0671,0.25743 0.0627,0.61462 -0.01,0.79376 -0.0725,0.17913 -0.12736,-0.0315 -0.12197,-0.46807 z M 18.728297,98.988512 c 0.0054,-0.43657 0.06469,-0.58313 0.131774,-0.3257 0.06708,0.25743 0.06267,0.61462 -0.0098,0.79375 -0.07248,0.17913 -0.127362,-0.0315 -0.12197,-0.46805 z m 87.577083,0 c 0.005,-0.43657 0.0647,-0.58313 0.13178,-0.3257 0.0671,0.25743 0.0627,0.61462 -0.01,0.79375 -0.0725,0.17913 -0.12736,-0.0315 -0.12197,-0.46805 z m -87.841666,-3.43959 c 0.0054,-0.43656 0.06469,-0.58312 0.131773,-0.32569 0.06708,0.25743 0.06267,0.61462 -0.0098,0.79375 -0.07248,0.17913 -0.127362,-0.0315 -0.12197,-0.46806 z m 88.106256,0 c 0.005,-0.43656 0.0647,-0.58312 0.13177,-0.32569 0.0671,0.25743 0.0627,0.61462 -0.01,0.79375 -0.0725,0.17913 -0.12736,-0.0315 -0.12197,-0.46806 z m -88.37084,-3.43958 c 0.0054,-0.43656 0.06469,-0.58312 0.131774,-0.32569 0.06708,0.25743 0.06267,0.61461 -0.0098,0.79375 -0.07247,0.17913 -0.127362,-0.0315 -0.12197,-0.46806 z m 88.63542,0 c 0.005,-0.43656 0.0647,-0.58312 0.13177,-0.32569 0.0671,0.25743 0.0627,0.61461 -0.01,0.79375 -0.0725,0.17913 -0.12736,-0.0315 -0.12197,-0.46806 z m -88.900003,-3.43958 c 0.0054,-0.43657 0.06469,-0.58313 0.131774,-0.3257 0.06708,0.25743 0.06267,0.61462 -0.0098,0.79375 -0.07248,0.17913 -0.127362,-0.0315 -0.12197,-0.46805 z m 89.154783,-0.13229 c 0,-0.36381 0.0601,-0.51263 0.13345,-0.33073 0.0734,0.1819 0.0734,0.47955 0,0.66145 -0.0734,0.18191 -0.13345,0.0331 -0.13345,-0.33072 z m -89.42917,-3.43959 c 0,-0.3638 0.06005,-0.51263 0.133452,-0.33073 0.0734,0.1819 0.0734,0.47956 0,0.66146 -0.0734,0.1819 -0.133452,0.0331 -0.133452,-0.33073 z m 89.69375,0 c 0,-0.3638 0.0601,-0.51263 0.13346,-0.33073 0.0734,0.1819 0.0734,0.47956 0,0.66146 -0.0734,0.1819 -0.13346,0.0331 -0.13346,-0.33073 z m -89.958333,-3.43958 c 0,-0.3638 0.06005,-0.51263 0.133452,-0.33073 0.0734,0.1819 0.0734,0.47956 0,0.66146 -0.0734,0.1819 -0.133452,0.0331 -0.133452,-0.33073 z m 90.222923,0 c 0,-0.3638 0.06,-0.51263 0.13345,-0.33073 0.0734,0.1819 0.0734,0.47956 0,0.66146 -0.0734,0.1819 -0.13345,0.0331 -0.13345,-0.33073 z m -90.487507,-3.43958 c 0,-0.36381 0.06005,-0.51263 0.133452,-0.33073 0.0734,0.1819 0.0734,0.47955 0,0.66145 -0.0734,0.18191 -0.133452,0.0331 -0.133452,-0.33072 z m 90.752087,0 c 0,-0.36381 0.06,-0.51263 0.13345,-0.33073 0.0734,0.1819 0.0734,0.47955 0,0.66145 -0.0734,0.18191 -0.13345,0.0331 -0.13345,-0.33072 z m -91.01667,-3.43959 c 0,-0.3638 0.06005,-0.51263 0.133452,-0.33073 0.0734,0.1819 0.0734,0.47956 0,0.66146 -0.0734,0.1819 -0.133452,0.0331 -0.133452,-0.33073 z m 91.28125,0 c 0,-0.3638 0.0601,-0.51263 0.13346,-0.33073 0.0734,0.1819 0.0734,0.47956 0,0.66146 -0.0734,0.1819 -0.13346,0.0331 -0.13346,-0.33073 z m -91.545833,-3.43958 c 0,-0.3638 0.06005,-0.51263 0.133452,-0.33073 0.0734,0.1819 0.0734,0.47956 0,0.66146 -0.0734,0.1819 -0.133452,0.0331 -0.133452,-0.33073 z m 91.820223,-0.13229 c 0.005,-0.43656 0.0647,-0.58313 0.13177,-0.3257 0.0671,0.25744 0.0627,0.61462 -0.01,0.79375 -0.0725,0.17914 -0.12736,-0.0315 -0.12197,-0.46805 z m -92.075003,-3.43959 c 0.0054,-0.43656 0.06469,-0.58312 0.131774,-0.32569 0.06708,0.25743 0.06267,0.61462 -0.0098,0.79375 -0.07248,0.17913 -0.127362,-0.0315 -0.12197,-0.46806 z m 92.339583,0 c 0.005,-0.43656 0.0647,-0.58312 0.13178,-0.32569 0.0671,0.25743 0.0627,0.61462 -0.01,0.79375 -0.0725,0.17913 -0.12736,-0.0315 -0.12197,-0.46806 z m -92.61397,-3.83645 c 0,-0.36381 0.06005,-0.51263 0.133452,-0.33073 0.0734,0.1819 0.0734,0.47955 0,0.66146 -0.0734,0.1819 -0.133452,0.0331 -0.133452,-0.33073 z m 92.84787,-0.15434 c 0.0127,-0.30823 0.0754,-0.37092 0.15985,-0.15986 0.0764,0.191 0.067,0.4192 -0.0209,0.50712 -0.0879,0.0879 -0.15045,-0.0684 -0.13896,-0.34726 z m -93.133341,-3.43959 c 0.0127,-0.30822 0.07539,-0.37092 0.159852,-0.15985 0.07643,0.191 0.06703,0.4192 -0.02089,0.50712 -0.08792,0.0879 -0.150453,-0.0683 -0.138964,-0.34727 z m 93.397921,0 c 0.0127,-0.30822 0.0754,-0.37092 0.15985,-0.15985 0.0764,0.191 0.067,0.4192 -0.0209,0.50712 -0.0879,0.0879 -0.15045,-0.0683 -0.13896,-0.34727 z m -93.641617,-3.28524 c 0,-0.3638 0.06005,-0.51263 0.133453,-0.33073 0.0734,0.1819 0.0734,0.47956 0,0.66146 -0.0734,0.1819 -0.133453,0.0331 -0.133453,-0.33073 z m 93.927087,0 c 0,-0.3638 0.06,-0.51263 0.13345,-0.33073 0.0734,0.1819 0.0734,0.47956 0,0.66146 -0.0734,0.1819 -0.13345,0.0331 -0.13345,-0.33073 z m -94.19167,-3.43958 c 0,-0.3638 0.06005,-0.51263 0.133452,-0.33073 0.0734,0.1819 0.0734,0.47956 0,0.66146 -0.0734,0.1819 -0.133452,0.0331 -0.133452,-0.33073 z m 94.45625,0 c 0,-0.3638 0.0601,-0.51263 0.13346,-0.33073 0.0734,0.1819 0.0734,0.47956 0,0.66146 -0.0734,0.1819 -0.13346,0.0331 -0.13346,-0.33073 z m -94.720833,-3.43959 c 0,-0.3638 0.06005,-0.51263 0.133452,-0.33073 0.0734,0.18191 0.0734,0.47956 0,0.66146 -0.0734,0.1819 -0.133452,0.0331 -0.133452,-0.33073 z m 94.985423,0 c 0,-0.3638 0.06,-0.51263 0.13345,-0.33073 0.0734,0.18191 0.0734,0.47956 0,0.66146 -0.0734,0.1819 -0.13345,0.0331 -0.13345,-0.33073 z m -95.212497,-4.23333 c 0,-0.800358 0.0496,-1.127788 0.110223,-0.727598 0.06062,0.400178 0.06062,1.055018 0,1.455208 -0.06062,0.40018 -0.110223,0.0728 -0.110223,-0.72761 z m 95.514587,0 c 0,-0.800358 0.0496,-1.127788 0.11022,-0.727598 0.0606,0.400178 0.0606,1.055018 0,1.455208 -0.0606,0.40018 -0.11022,0.0728 -0.11022,-0.72761 z M 74.503802,40.383304 c -0.50933,-0.27884 -0.83084,-0.51198 -0.71447,-0.51808 0.28038,-0.0147 1.7728,0.76127 1.7728,0.92175 0,0.17317 -0.0155,0.16727 -1.05833,-0.40367 z m -4.23334,-1.98437 c -0.65484,-0.35065 -1.07156,-0.63755 -0.92604,-0.63755 0.14552,0 0.80037,0.2869 1.45521,0.63755 0.65484,0.35065 1.07156,0.63754 0.92604,0.63754 -0.14552,0 -0.80036,-0.28689 -1.45521,-0.63754 z m -4.49791,-1.98438 c -0.21829,-0.14106 -0.27782,-0.25648 -0.1323,-0.25648 0.14552,0 0.44318,0.11542 0.66146,0.25648 0.21828,0.14107 0.27781,0.25648 0.13229,0.25648 -0.14552,0 -0.44317,-0.11541 -0.66145,-0.25648 z m -14.14823,-12.0021 c 0.0753,-0.85308 0.315593,-1.80558 0.533977,-2.11666 0.377081,-0.53715 0.387824,-0.51901 0.213475,0.36043 -0.100974,0.50932 -0.341264,1.46182 -0.533978,2.11667 l -0.350388,1.19062 z m 8.52583,-6.95854 c 0.1819,-0.0734 0.47956,-0.0734 0.66146,0 0.1819,0.0734 0.0331,0.13345 -0.33073,0.13345 -0.3638,0 -0.51263,-0.0601 -0.33073,-0.13345 z m 4.49792,0 c 0.1819,-0.0734 0.47955,-0.0734 0.66145,0 0.18191,0.0734 0.0331,0.13345 -0.33072,0.13345 -0.36381,0 -0.51263,-0.0601 -0.33073,-0.13345 z m -6.86263,-0.2701 c 0.19099,-0.0764 0.4192,-0.067 0.50711,0.0209 0.0879,0.0879 -0.0684,0.15045 -0.34726,0.13896 -0.30823,-0.0127 -0.37092,-0.0754 -0.15985,-0.15985 z m -7.78074,-5.441655 -0.504028,-0.595313 0.595312,0.504028 c 0.559447,0.473662 0.715762,0.686597 0.504028,0.686597 -0.05021,0 -0.318097,-0.26789 -0.595312,-0.595312 z"
       id="path9" /><path
       style="fill:#00aad4"
       d="m 57.702752,122.18134 c -2.703797,-0.97448 -13.483083,-5.32241 -15.756833,-6.35567 -1.118548,-0.5083 -1.838245,-1.0169 -2.027869,-1.43308 -0.351177,-0.77075 -0.396704,-3.64483 -0.364085,-22.984638 l 0.02483,-14.72431 9.855729,4.23063 c 5.420651,2.32685 10.586728,4.41251 11.480168,4.63481 2.5866,0.64357 4.13938,0.17739 15.04148,-4.51575 5.237184,-2.25451 9.552234,-4.06904 9.588994,-4.03228 0.0368,0.0368 0.0712,8.50365 0.0766,18.81532 0.008,14.886448 -0.06,18.815788 -0.32858,19.075068 -0.18607,0.17961 -4.56503,2.03274 -9.731024,4.11808 l -9.39271,3.79152 -3.175,0.0716 c -2.93142,0.0661 -3.33738,0.0131 -5.29167,-0.69128 z M 105.8582,106.07373 c 0.0782,-0.54988 0.73312,-8.917458 1.45529,-18.594598 0.72217,-9.67713 1.38511,-18.27015 1.47319,-19.09558 l 0.16014,-1.5008 3.17591,-1.36307 c 1.74675,-0.74969 3.23908,-1.2999 3.31628,-1.2227 0.0772,0.0772 -0.29463,7.40757 -0.82631,16.2897 -1.06402,17.77542 -1.08521,17.92506 -2.99408,21.146318 -1.09586,1.84929 -3.27039,3.99762 -4.87493,4.8162 l -1.02773,0.52431 z m -88.464638,-0.48286 c -2.700184,-2.02977 -4.761053,-5.44294 -5.320335,-8.811408 -0.160695,-0.96784 -0.700406,-8.71413 -1.199358,-17.21399 -0.53358,-9.08975 -1.0205175,-15.56762 -1.1823765,-15.72948 -0.151355,-0.15135 -0.273436,-0.45974 -0.271291,-0.68529 0.0023,-0.24563 0.135651,-0.14976 0.332407,0.23904 0.235691,0.46574 1.1503335,1.0053 3.2372445,1.9097 1.599807,0.69329 2.998147,1.29418 3.107423,1.3353 0.109276,0.0411 0.850532,8.70676 1.647235,19.25697 0.796703,10.55022 1.503481,19.569198 1.570619,20.042138 0.06714,0.47294 0.02229,0.85989 -0.09967,0.85989 -0.121953,0 -0.941809,-0.54129 -1.821903,-1.20287 z M 86.166356,89.970622 c 0.0127,-0.30822 0.0754,-0.37091 0.15985,-0.15985 0.0764,0.191 0.067,0.4192 -0.0209,0.50712 -0.0879,0.0879 -0.15045,-0.0683 -0.13896,-0.34727 z M 61.457262,78.195592 c -2.21653,-0.52721 -2.03471,0.41169 -2.03471,-10.5075 0,-8.95032 -0.0387,-9.7911 -0.48991,-10.64017 -0.26945,-0.50705 -0.83874,-1.16004 -1.2651,-1.45108 -0.426355,-0.29104 -4.306685,-2.01016 -8.622955,-3.82027 -4.31627,-1.81011 -7.789026,-3.38615 -7.717235,-3.50231 0.333268,-0.53923 2.508697,-1.79818 3.18474,-1.84304 0.460061,-0.0305 3.909315,1.27354 8.82504,3.33652 4.43838,1.86265 8.55318,3.44036 9.14399,3.50603 0.92071,0.10234 2.25993,-0.37528 9.37306,-3.34283 4.56438,-1.90422 8.628334,-3.46222 9.031004,-3.46222 0.69285,0 2.26135,0.74163 3.15426,1.49143 0.33433,0.28075 0.53628,0.27541 1.12448,-0.0298 0.39433,-0.20458 0.71696,-0.27108 0.71696,-0.14777 0,0.1233 -4.0894,1.96591 -9.087564,4.09467 -9.03084,3.84633 -9.93,4.33976 -10.72386,5.88496 -0.20351,0.39612 -0.29691,3.61491 -0.29691,10.23208 v 9.65417 l -0.8599,0.26619 c -1.46451,0.45336 -2.40788,0.53004 -3.45539,0.28089 z m 47.463268,-13.62496 c 0.0127,-0.30823 0.0754,-0.37092 0.15985,-0.15986 0.0764,0.191 0.067,0.4192 -0.0209,0.50712 -0.0879,0.0879 -0.15045,-0.0683 -0.13896,-0.34726 z m 7.16463,-3.28525 c 0,-0.3638 0.0601,-0.51263 0.13345,-0.33073 0.0734,0.18191 0.0734,0.47956 0,0.66146 -0.0734,0.1819 -0.13345,0.0331 -0.13345,-0.33073 z M 15.787189,61.131042 c 0.0127,-0.30822 0.07539,-0.37092 0.159852,-0.15985 0.07643,0.191 0.06703,0.4192 -0.02089,0.50712 -0.08792,0.0879 -0.150453,-0.0684 -0.138964,-0.34727 z m 93.397921,0 c 0.0127,-0.30822 0.0754,-0.37092 0.15985,-0.15985 0.0764,0.191 0.067,0.4192 -0.0209,0.50712 -0.0879,0.0879 -0.15045,-0.0684 -0.13896,-0.34727 z M 9.1934945,59.697882 c 0,-0.3638 0.06005,-0.51263 0.133452,-0.33073 0.0734,0.18191 0.0734,0.47956 0,0.66146 -0.0734,0.1819 -0.133452,0.0331 -0.133452,-0.33073 z m 6.3598025,-1.4552 c 0.0054,-0.43657 0.06469,-0.58313 0.131774,-0.3257 0.06708,0.25743 0.06267,0.61462 -0.0098,0.79375 -0.07247,0.17913 -0.127362,-0.0315 -0.12197,-0.46805 z m 93.927083,0 c 0.005,-0.43657 0.0647,-0.58313 0.13178,-0.3257 0.0671,0.25743 0.0627,0.61462 -0.01,0.79375 -0.0725,0.17913 -0.12736,-0.0315 -0.12197,-0.46805 z m 6.86937,-0.66146 c 0,-0.36381 0.06,-0.51263 0.13345,-0.33073 0.0734,0.1819 0.0734,0.47956 0,0.66146 -0.0734,0.1819 -0.13345,0.0331 -0.13345,-0.33073 z M 15.288714,54.803092 c 0.0054,-0.43656 0.06469,-0.58312 0.131774,-0.32569 0.06708,0.25743 0.06267,0.61462 -0.0098,0.79375 -0.07248,0.17913 -0.127362,-0.0315 -0.12197,-0.46806 z m 94.456256,0 c 0.005,-0.43656 0.0647,-0.58312 0.13177,-0.32569 0.0671,0.25743 0.0627,0.61462 -0.01,0.79375 -0.0725,0.17913 -0.12737,-0.0315 -0.12197,-0.46806 z m -94.720839,-3.43958 c 0.0054,-0.43656 0.06469,-0.58313 0.131773,-0.32569 0.06708,0.25743 0.06267,0.61461 -0.0098,0.79375 -0.07248,0.17913 -0.127361,-0.0315 -0.121969,-0.46806 z m 94.985419,0 c 0.005,-0.43656 0.0647,-0.58313 0.13177,-0.32569 0.0671,0.25743 0.0627,0.61461 -0.01,0.79375 -0.0725,0.17913 -0.12736,-0.0315 -0.12197,-0.46806 z M 2.8226065,48.695632 c 0.0127,-0.30823 0.07539,-0.37092 0.159852,-0.15986 0.07643,0.191 0.06703,0.4192 -0.02089,0.50712 -0.08792,0.0879 -0.150453,-0.0683 -0.138964,-0.34726 z m 11.9369405,-0.7717 c 0.0054,-0.43657 0.06469,-0.58313 0.131774,-0.3257 0.06708,0.25743 0.06267,0.61462 -0.0098,0.79375 -0.07248,0.17913 -0.127362,-0.0315 -0.12197,-0.46805 z m 95.514583,0 c 0.005,-0.43657 0.0647,-0.58313 0.13178,-0.3257 0.0671,0.25743 0.0627,0.61462 -0.01,0.79375 -0.0725,0.17913 -0.12736,-0.0315 -0.12197,-0.46805 z M 2.5789115,46.733302 c 0,-0.3638 0.06005,-0.51263 0.133452,-0.33073 0.0734,0.1819 0.0734,0.47956 0,0.66146 -0.0734,0.1819 -0.133452,0.0331 -0.133452,-0.33073 z M 122.44497,45.278092 c 0.005,-0.436558 0.0647,-0.583118 0.13177,-0.325688 0.0671,0.25743 0.0627,0.614618 -0.01,0.793748 -0.0725,0.17913 -0.12737,-0.0315 -0.12197,-0.46806 z M 14.728855,44.197714 c 0.0127,-0.30822 0.07539,-0.37092 0.159853,-0.15985 0.07643,0.19099 0.06703,0.4192 -0.02089,0.50712 -0.08792,0.0879 -0.150453,-0.0684 -0.138965,-0.34727 z m 95.514585,0 c 0.0127,-0.30822 0.0754,-0.37092 0.15985,-0.15985 0.0764,0.19099 0.067,0.4192 -0.0209,0.50712 -0.0879,0.0879 -0.15046,-0.0684 -0.13897,-0.34727 z m 12.20153,-4.74045 c 0.005,-0.43656 0.0647,-0.58313 0.13177,-0.32569 0.0671,0.25743 0.0627,0.61461 -0.01,0.79375 -0.0725,0.17913 -0.12737,-0.0315 -0.12197,-0.46806 z M 2.5789115,39.060384 c 0,-0.3638 0.06005,-0.51263 0.133452,-0.33072 0.0734,0.1819 0.0734,0.47955 0,0.66145 -0.0734,0.1819 -0.133452,0.0331 -0.133452,-0.33073 z M 16.75281,38.231704 c -1.68528,-0.94313 -10.6918395,-4.46298 -11.4198315,-4.46298 -1.203273,0 -1.735834,0.23062 -1.745556,0.75591 -0.0073,0.3931 -0.03158,0.39447 -0.253884,0.0143 -0.383666,-0.65611 0.493555,-3.01571 1.47466,-3.96664 0.603858,-0.58528 3.155448,-1.80247 8.8144075,-4.20476 l 7.964527,-3.38103 -0.03069,2.28225 c -0.01688,1.25524 -0.08514,2.0739 -0.151692,1.81924 -0.06655,-0.25466 -0.142035,-0.46179 -0.167745,-0.46029 -0.02571,10e-4 -2.308933,0.93577 -5.073829,2.07615 -4.890533,2.0171 -5.027083,2.09422 -5.027083,2.83905 0,0.73842 0.14571,0.826 4.101042,2.465 2.255573,0.93465 4.148816,1.73761 4.207207,1.78435 0.05839,0.0467 -0.435387,0.66394 -1.097284,1.37157 -0.866856,0.92673 -1.312752,1.22541 -1.594247,1.06788 z m 90.05423,-1.05531 -1.16655,-1.30098 1.40477,-0.59032 c 7.25712,-3.04966 7.01375,-2.91964 7.01375,-3.74705 0,-0.75545 -0.11538,-0.82029 -5.02112,-2.82157 -2.76161,-1.12659 -5.1131,-1.99149 -5.22552,-1.92202 -0.11242,0.0695 -0.2044,-0.72687 -0.2044,-1.76967 0,-1.41274 0.0843,-1.86145 0.33073,-1.76042 3.19781,1.31105 15.05773,6.36794 15.54427,6.62783 0.3638,0.19434 0.63059,0.49452 0.59286,0.66709 -0.0377,0.17256 0.11041,0.38244 0.32921,0.4664 0.21879,0.084 0.33193,0.25924 0.25142,0.38951 -0.0805,0.13028 -0.0438,0.23686 0.0815,0.23686 0.21466,0 0.89023,1.71059 1.25393,3.175 0.15166,0.61069 0.13504,0.62515 -0.2166,0.18849 -0.50382,-0.62565 -1.87364,-0.99931 -2.91203,-0.79435 -0.45954,0.0907 -3.03008,1.09758 -5.7123,2.23748 -2.68222,1.1399 -4.94441,2.06043 -5.02709,2.04563 -0.0827,-0.0148 -0.67526,-0.61237 -1.31687,-1.32791 z M 2.8226065,37.053964 c 0.0127,-0.30822 0.07539,-0.37092 0.159852,-0.15985 0.07643,0.19099 0.06703,0.4192 -0.02089,0.50712 -0.08792,0.0879 -0.150453,-0.0683 -0.138964,-0.34727 z M 122.14969,36.789384 c 0.0127,-0.30823 0.0754,-0.37092 0.15985,-0.15985 0.0764,0.19099 0.067,0.41919 -0.0209,0.50711 -0.0879,0.0879 -0.15046,-0.0683 -0.13897,-0.34726 z m -60.417938,-19.3512 c 0.4697,-0.0585 1.30313,-0.0594 1.85208,-0.002 0.54895,0.0573 0.16465,0.1051 -0.85399,0.10628 -1.01865,0.001 -1.46779,-0.0457 -0.99809,-0.10414 z m 5.04952,-0.25437 c 0.191,-0.0764 0.4192,-0.067 0.50712,0.0209 0.0879,0.0879 -0.0683,0.15045 -0.34727,0.13896 -0.30822,-0.0127 -0.37092,-0.0754 -0.15985,-0.15985 z m 5.80275,-3.239093 c 0.0398,-0.0619 -1.92304,-0.936515 -4.36178,-1.943593 -5.82697,-2.4062458 -5.73346,-2.4065258 -11.577819,0.0347 l -4.497916,1.87881 -1.246264,-1.381175 c -0.685445,-0.759645 -1.161695,-1.449436 -1.058333,-1.532868 0.103361,-0.08343 2.390586,-1.0966868 5.082722,-2.2516808 l 4.89479,-2.099987 2.64583,0.01512 2.64584,0.01512 4.76235,2.059187 c 2.61929,1.132553 4.89811,2.1377798 5.06404,2.2338378 0.19073,0.110412 -0.1999,0.7099 -1.06203,1.62986 -0.75005,0.800365 -1.3312,1.404564 -1.29143,1.342666 z"
       id="path8" /><path
       style="fill:#dc8435"
       d="m 85.698286,108.77812 c 0.001,-0.87313 0.0509,-1.19842 0.10977,-0.72287 0.0589,0.47555 0.0577,1.18993 -0.003,1.5875 -0.0604,0.39758 -0.10855,0.008 -0.10707,-0.86463 z m -46.302084,-0.52917 c 0.0015,-0.87312 0.05088,-1.19841 0.109766,-0.72286 0.05889,0.47555 0.05767,1.18992 -0.0027,1.5875 -0.06037,0.39757 -0.108551,0.008 -0.107066,-0.86464 z m 46.566664,-7.93753 c 10e-4,-0.873118 0.0509,-1.198408 0.10977,-0.722858 0.0589,0.475548 0.0577,1.189918 -0.003,1.587508 -0.0604,0.39757 -0.10855,0.008 -0.10707,-0.86465 z M 39.131619,99.517672 c 0.0015,-0.87312 0.05088,-1.19841 0.109765,-0.72286 0.05889,0.47555 0.05767,1.18992 -0.0027,1.587498 -0.06037,0.39757 -0.10855,0.008 -0.107065,-0.864638 z m 47.095837,-7.67291 c 10e-4,-0.87313 0.0509,-1.19842 0.10976,-0.72287 0.0589,0.47555 0.0577,1.18992 -0.003,1.5875 -0.0604,0.39758 -0.10855,0.008 -0.10706,-0.86463 z m -47.360421,-0.79375 c 0.0015,-0.87313 0.05088,-1.19842 0.109766,-0.72287 0.05889,0.47555 0.05767,1.18992 -0.0027,1.5875 -0.06037,0.39758 -0.108551,0.008 -0.107066,-0.86463 z m 47.625001,-7.9375 c 0.001,-0.87313 0.0509,-1.19842 0.10977,-0.72287 0.0589,0.47555 0.0577,1.18993 -0.003,1.5875 -0.0604,0.39758 -0.10855,0.008 -0.10707,-0.86463 z m -47.889584,-0.79375 c 0.0015,-0.87313 0.05088,-1.19842 0.109766,-0.72287 0.05889,0.47555 0.05767,1.18993 -0.0027,1.5875 -0.06037,0.39758 -0.108551,0.008 -0.107066,-0.86463 z m 48.154164,-7.40834 c 0.001,-0.87312 0.0509,-1.19841 0.10977,-0.72286 0.0589,0.47555 0.0577,1.18992 -0.003,1.5875 -0.0604,0.39757 -0.10855,0.008 -0.10707,-0.86464 z m -48.418747,-0.52916 c 0.0015,-0.87313 0.05088,-1.19842 0.109765,-0.72287 0.05889,0.47555 0.05767,1.18993 -0.0027,1.5875 -0.06037,0.39758 -0.10855,0.008 -0.107065,-0.86463 z m 48.686037,-8.33438 c 0,-0.94588 0.048,-1.33284 0.10671,-0.85989 0.0587,0.47294 0.0587,1.24685 0,1.71979 -0.0587,0.47294 -0.10671,0.086 -0.10671,-0.8599 z m -48.94792,-0.52916 c 0,-0.94589 0.04802,-1.33284 0.106712,-0.8599 0.05869,0.47294 0.05869,1.24685 0,1.71979 -0.05869,0.47294 -0.106712,0.086 -0.106712,-0.85989 z m 49.2125,-7.9375 c 0,-0.94589 0.048,-1.33284 0.10671,-0.8599 0.0587,0.47294 0.0587,1.24685 0,1.71979 -0.0587,0.47295 -0.10671,0.086 -0.10671,-0.85989 z m -49.479784,-0.66146 c 0.0015,-0.87313 0.05088,-1.19842 0.109766,-0.72287 0.05889,0.47555 0.05767,1.18993 -0.0027,1.5875 -0.06037,0.39758 -0.108551,0.008 -0.107066,-0.86463 z m 46.715514,-10.64948 c -0.3291,-0.41964 -0.31975,-0.429 0.0999,-0.0999 0.25466,0.19971 0.46302,0.40807 0.46302,0.46302 0,0.21776 -0.21727,0.0776 -0.56292,-0.36313 z m -5.637984,-4.315718 c -0.71836,-0.12023 -1.42136,-0.14736 -1.56223,-0.0603 -0.15281,0.0944 -0.16877,0.0169 -0.0396,-0.19213 0.15726,-0.25445 0.096,-0.30415 -0.2237,-0.18148 -0.24215,0.0929 -0.44028,0.0466 -0.44028,-0.10294 0,-0.14955 -0.11906,-0.19831 -0.26458,-0.10838 -0.14552,0.0899 -0.26458,0.0304 -0.26458,-0.13229 0,-0.1627 -0.11907,-0.22223 -0.26459,-0.13229 -0.14552,0.0899 -0.26458,0.0405 -0.26458,-0.10988 0,-0.36582 -1.5348,-1.14455 -1.85985,-0.94365 -0.14125,0.0873 -0.25682,0.0256 -0.25682,-0.1371 0,-0.16269 -0.11906,-0.22222 -0.26458,-0.13229 -0.14552,0.0899 -0.26458,0.0304 -0.26458,-0.13229 0,-0.1627 -0.11907,-0.22223 -0.26459,-0.13229 -0.14552,0.0899 -0.26458,0.0304 -0.26458,-0.13229 0,-0.1627 -0.11906,-0.22223 -0.26458,-0.13229 -0.14553,0.0899 -0.26459,0.0565 -0.26459,-0.0742 0,-0.34623 -1.31266,-0.8894 -1.6482,-0.68202 -0.1699,0.105 -0.20915,0.0528 -0.0969,-0.12894 0.17876,-0.28924 0.0768,-0.34896 -0.70234,-0.41129 -0.1819,-0.0145 -0.40098,-0.12172 -0.48683,-0.23815 -0.0858,-0.11643 -0.41328,-0.23107 -0.7276,-0.25474 -0.31433,-0.0237 -0.57151,-0.14381 -0.57151,-0.26695 0,-0.12314 -0.11906,-0.15031 -0.26458,-0.0604 -0.14553,0.0899 -0.26459,0.0176 -0.26459,-0.16077 0,-0.17837 -0.0737,-0.25059 -0.16379,-0.16051 -0.0901,0.0901 -0.34356,-0.016 -0.56328,-0.2357 -0.21972,-0.21972 -0.56273,-0.33685 -0.76225,-0.26029 -0.19952,0.0766 -0.36276,0.0168 -0.36276,-0.13269 0,-0.14954 -0.11906,-0.19831 -0.26458,-0.10837 -0.14552,0.0899 -0.26459,0.051 -0.26459,-0.0866 0,-0.26876 1.08959,-0.45406 4.23334,-0.71993 l 1.98437,-0.16782 0.62011,0.84075 0.62011,0.84075 0.63912,-0.60043 c 0.37955,-0.35657 0.58197,-0.78049 0.4984,-1.0438 -0.0774,-0.24386 0.053,-0.60413 0.28968,-0.80059 0.69317,-0.57528 0.88301,-1.41562 0.60057,-2.65839 l -0.26367,-1.16015 1.40826,-1.30552 c 4.145184,-3.84276 14.184804,-8.7489 19.008244,-9.28891 2.80917,-0.3145 5.23928,1.15666 6.652524,4.02735 1.16347,2.36334 1.35585,5.48296 0.50989,8.26811 -0.31254,1.02896 -0.66867,1.87084 -0.79141,1.87084 -0.12273,0 -0.30088,-0.48609 -0.39588,-1.0802 -0.397664,-2.48683 -2.670264,-5.36407 -4.789184,-6.06338 -0.6497,-0.21442 -1.73353,-0.28244 -3.02045,-0.18955 -4.7239,0.34096 -13.806444,4.66238 -18.748914,8.92063 -0.76006,0.65485 -1.38199,1.27792 -1.38206,1.38461 -2.4e-4,0.36181 2.63279,1.53047 4.29698,1.9072 0.91081,0.20618 2.754534,0.50446 4.097174,0.66285 2.00701,0.23676 2.72242,0.45282 4.02269,1.21489 0.86985,0.5098 1.65359,1.04349 1.74165,1.18597 0.195,0.31552 -5.74505,0.29864 -7.659524,-0.0218 z m -27.401183,-6.25439 c -5.099649,-4.42832 -14.043611,-8.67552 -18.958798,-9.00293 -1.870712,-0.12461 -2.319384,-0.0655 -3.37273,0.44442 -2.038833,0.98699 -3.879452,3.57505 -4.361577,6.13275 l -0.217862,1.15577 -0.629611,-1.32292 c -0.549051,-1.15365 -0.630119,-1.71283 -0.633579,-4.37027 -0.0038,-2.92384 0.03185,-3.12016 0.879755,-4.84337 1.415099,-2.87594 4.056889,-4.43051 6.845237,-4.0281 4.863016,0.70182 14.614288,5.44167 18.596326,9.0392 l 1.102658,0.99619 -0.179576,1.78814 c -0.169547,1.68827 -0.141209,1.82651 0.507382,2.4751 0.377827,0.37782 0.686958,0.84168 0.686958,1.0308 0,0.18911 0.24992,0.57001 0.555377,0.84645 0.549059,0.49689 0.562103,0.49417 1.146411,-0.23862 0.585211,-0.73392 0.611667,-0.73936 2.685768,-0.55233 1.152104,0.10389 2.383404,0.26565 2.736234,0.35946 0.57696,0.15342 0.49866,0.23202 -0.77836,0.78138 -1.221896,0.52565 -1.674765,0.58568 -3.24835,0.43062 -1.273353,-0.12547 -1.775351,-0.0942 -1.653428,0.10311 0.298271,0.48261 0.06765,0.31725 -1.708235,-1.22485 z"
       id="path7" /><path
       style="fill:#0088aa"
       d="m 85.695586,105.47083 c 0,-0.80037 0.0496,-1.12779 0.11022,-0.72761 0.0606,0.40019 0.0606,1.05503 0,1.45521 -0.0606,0.40018 -0.11022,0.0728 -0.11022,-0.7276 z m -46.302084,-0.79375 c 0,-0.80038 0.0496,-1.1278 0.110223,-0.72762 0.06062,0.4002 0.06062,1.05504 0,1.45522 -0.06062,0.40018 -0.110223,0.0728 -0.110223,-0.7276 z m 46.295464,-16.668778 0.0272,-11.50938 0.15987,10.84792 c 0.0879,5.96635 0.0757,11.14557 -0.0272,11.50937 -0.10287,0.36381 -0.17481,-4.51776 -0.15986,-10.84791 z m -46.417031,10.12031 c -0.06158,-0.5457 -0.04081,-5.63562 0.04615,-11.31094 l 0.15811,-10.31875 0.0513,11.31094 c 0.02822,6.22102 0.0074,11.31094 -0.04615,11.31094 -0.0536,0 -0.147834,-0.44649 -0.20941,-0.99219 z m 46.952821,-9.85573 c 0,-0.80036 0.0496,-1.12778 0.11022,-0.7276 0.0606,0.40018 0.0606,1.05502 0,1.45521 -0.0606,0.40018 -0.11022,0.0728 -0.11022,-0.72761 z m -47.357721,-0.66146 c 0.0015,-0.87312 0.05088,-1.19841 0.109766,-0.72286 0.05889,0.47555 0.05767,1.18992 -0.0027,1.5875 -0.06037,0.39757 -0.108551,0.008 -0.107066,-0.86464 z m 23.267497,-1.90217 c 0.25466,-0.0666 0.67138,-0.0666 0.92604,0 0.25466,0.0665 0.0463,0.121 -0.46302,0.121 -0.50933,0 -0.71769,-0.0545 -0.46302,-0.121 z m 24.357504,-6.03533 c 0.001,-0.87312 0.0509,-1.19841 0.10977,-0.72286 0.0589,0.47555 0.0577,1.18992 -0.003,1.5875 -0.0604,0.39757 -0.10855,0.008 -0.10707,-0.86464 z m -47.892284,-0.66145 c 0,-0.80037 0.0496,-1.12779 0.110223,-0.72761 0.06062,0.40018 0.06062,1.05503 0,1.45521 -0.06062,0.40018 -0.110223,0.0728 -0.110223,-0.7276 z m 24.74194,-0.70991 c 0.19099,-0.0764 0.4192,-0.067 0.50711,0.0209 0.0879,0.0879 -0.0683,0.15045 -0.34726,0.13896 -0.30823,-0.0127 -0.37092,-0.0754 -0.15985,-0.15985 z m -4.02166,-0.80372 c -0.10489,-0.10489 -4.619339,-2.0504 -10.032114,-4.32335 l -9.84141,-4.13265 -0.06976,-8.63992 c -0.07251,-8.98118 -0.05036,-9.21915 1.103296,-11.85104 0.139535,-0.31833 0.01233,-0.47463 -0.488589,-0.60035 -0.908098,-0.22792 -0.853674,-0.65227 0.248848,-1.94032 l 0.926088,-1.081928 1.124433,0.548048 c 0.618438,0.30142 1.481621,0.63561 1.918183,0.74263 0.733552,0.17983 0.743585,0.19714 0.132292,0.22823 -0.592424,0.0301 -3.354781,1.79043 -3.132918,1.99644 0.04962,0.0461 3.42396,1.48114 7.498543,3.18905 9.011718,3.77737 9.194598,3.86819 9.965738,4.94936 0.61509,0.86237 0.61813,0.90692 0.74989,10.9864 0.0728,5.56628 0.12237,10.12042 0.11024,10.12031 -0.0121,-1.1e-4 -0.10787,-0.086 -0.21276,-0.19091 z m 6.45252,-9.48398 c 0,-6.63234 0.0934,-9.85642 0.29691,-10.2526 0.88192,-1.71659 1.33018,-1.94091 17.622684,-8.81854 l 0.85397,-0.36049 0.60124,1.12556 c 0.5922,1.10864 0.60124,1.26401 0.60124,10.33901 v 9.21345 l -9.893254,4.21415 c -5.44129,2.31778 -9.9359,4.21415 -9.98802,4.21415 -0.0521,0 -0.0948,-4.35361 -0.0948,-9.67469 z m 20.953664,4.7799 c 0.005,-0.43656 0.0647,-0.58313 0.13177,-0.3257 0.0671,0.25744 0.0627,0.61462 -0.01,0.79375 -0.0725,0.17914 -0.12736,-0.0315 -0.12197,-0.46805 z m -48.408949,-0.66146 c 0,-0.50932 0.05445,-0.71768 0.121,-0.46302 0.06655,0.25466 0.06655,0.67138 0,0.92604 -0.06655,0.25466 -0.121,0.0463 -0.121,-0.46302 z m -22.265495,-6.76892 c 0.0127,-0.30823 0.07539,-0.37092 0.159852,-0.15986 0.07643,0.191 0.06703,0.4192 -0.02089,0.50712 -0.08792,0.0879 -0.150453,-0.0684 -0.138964,-0.34726 z m 92.868758,0 c 0.0127,-0.30823 0.0754,-0.37092 0.15985,-0.15986 0.0764,0.191 0.067,0.4192 -0.0209,0.50712 -0.0879,0.0879 -0.15045,-0.0684 -0.13896,-0.34726 z m -21.909254,-1.96233 c 0,-0.65484 0.0516,-0.92273 0.11467,-0.59531 0.0631,0.32742 0.0631,0.8632 0,1.19062 -0.0631,0.32742 -0.11467,0.0595 -0.11467,-0.59531 z m -48.944302,-0.66146 c 0.002,-0.7276 0.05337,-0.99386 0.114185,-0.59167 0.06082,0.40218 0.05919,0.99749 -0.0036,1.32291 -0.0628,0.32542 -0.112561,-0.004 -0.110574,-0.73124 z m -22.279785,-0.8158 c 0.0127,-0.30822 0.07539,-0.37092 0.159852,-0.15985 0.07643,0.191 0.06703,0.4192 -0.02089,0.50712 -0.08792,0.0879 -0.150453,-0.0684 -0.138964,-0.34727 z m 93.397921,0 c 0.0127,-0.30822 0.0754,-0.37092 0.15985,-0.15985 0.0764,0.191 0.067,0.4192 -0.0209,0.50712 -0.0879,0.0879 -0.15045,-0.0684 -0.13896,-0.34727 z m -97.094521,-4.34572 c -6.0021015,-2.62282 -6.9669865,-3.17455 -7.6309205,-4.36348 -1.399076,-2.50536 -2.068037,-6.8491 -1.83363,-11.906248 0.170949,-3.68808 0.753132,-6.97534 1.29643,-7.32021 0.898318,-0.57023 2.485266,-0.15155 7.6440935,2.01675 2.92747,1.23044 5.359713,2.2742 5.404984,2.31947 0.04527,0.0453 -0.32828,0.91379 -0.830115,1.93003 -1.540713,3.12003 -1.609643,3.92192 -1.022416,11.894118 0.284367,3.86057 0.516573,7.00994 0.516013,6.9986 -5.61e-4,-0.0113 -1.595558,-0.7174 -3.544439,-1.56903 z m 97.986521,-5.45359 c 0.58392,-7.915768 0.51343,-8.757598 -0.98799,-11.798698 l -0.87699,-1.77631 4.77553,-2.03134 c 2.62653,-1.11723 5.19224,-2.12896 5.70156,-2.24828 1.15273,-0.27004 2.67553,0.11287 3.0876,0.77638 0.17021,0.27408 0.45013,1.91424 0.62205,3.6448 0.53304,5.36582 -0.11134,10.935328 -1.62852,14.075628 -0.76279,1.57883 -0.90827,1.71871 -2.70045,2.59648 -1.6081,0.78761 -4.1651,1.9215 -7.71505,3.42121 l -0.79375,0.33532 z m -22.797634,2.67761 c 0.002,-0.7276 0.0534,-0.99386 0.11418,-0.59167 0.0608,0.40218 0.0592,0.99749 -0.004,1.32291 -0.0628,0.32543 -0.11256,-0.004 -0.11057,-0.73124 z m -49.480697,-0.66146 c 0,-0.65484 0.0516,-0.92273 0.114662,-0.59531 0.06306,0.32742 0.06306,0.8632 0,1.19063 -0.06306,0.32742 -0.114662,0.0595 -0.114662,-0.59532 z m 23.487023,-1.04583 c -0.21214,-0.13419 -3.932844,-1.70573 -8.268231,-3.49232 -4.335387,-1.78659 -7.882423,-3.31209 -7.882303,-3.38999 4.37e-4,-0.28167 5.813564,-3.197418 11.572477,-5.804518 l 5.884157,-2.66381 2.84709,1.20168 c 1.5659,0.66093 5.6279,2.57913 9.02667,4.26268 l 6.179564,3.061008 -8.494794,3.53868 c -8.39181,3.49578 -9.84092,3.93414 -10.86463,3.28659 z m 25.938884,-0.69601 c 0.0127,-0.30822 0.0754,-0.37092 0.15986,-0.15985 0.0764,0.191 0.067,0.4192 -0.0209,0.50712 -0.0879,0.0879 -0.15046,-0.0683 -0.13897,-0.34727 z m -49.456194,-0.63941 c 0,-0.3638 0.06005,-0.51263 0.133452,-0.33073 0.0734,0.18191 0.0734,0.47956 0,0.66146 -0.0734,0.1819 -0.133452,0.0331 -0.133452,-0.33073 z m 46.364834,-3.74908 c -0.2007,-0.32474 -2.54603,-1.5425 -2.98212,-1.54839 -0.23633,-0.003 0.0893,-0.24132 0.72368,-0.52917 0.63435,-0.28785 1.25909,-0.52336 1.3883,-0.52336 0.4633,0 2.31728,1.89116 2.28423,2.33002 -0.0331,0.44005 -1.17442,0.65868 -1.41409,0.2709 z M 15.334336,34.059424 c -4.053511,-1.6881 -4.198244,-1.77481 -4.198244,-2.51526 0,-0.74652 0.133216,-0.82175 5.015665,-2.83241 2.758616,-1.13604 5.07083,-2.01036 5.138253,-1.94293 0.06742,0.0674 0.211234,1.34256 0.319578,2.83364 0.108343,1.49108 0.329538,3.05498 0.491544,3.47535 0.162006,0.42036 0.26146,0.7962 0.221008,0.8352 -0.04045,0.039 -0.684651,0.48127 -1.431554,0.98284 l -1.358006,0.91195 z m 88.913994,0.84465 -1.34402,-0.91926 0.35183,-1.35633 c 0.19351,-0.74598 0.35183,-2.33539 0.35183,-3.53202 0,-1.19662 0.092,-2.23253 0.2044,-2.30201 0.11242,-0.0695 2.46391,0.79467 5.22552,1.92033 4.59483,1.87289 5.02808,2.10541 5.10312,2.73875 0.0586,0.49434 -0.0844,0.78113 -0.50019,1.00368 -0.57977,0.31028 -7.28015,3.14115 -7.78389,3.28864 -0.14552,0.0426 -0.86939,-0.33619 -1.6086,-0.84178 z M 57.835052,17.099364 c -0.654848,-0.12922 -1.714036,-0.33195 -2.353756,-0.45052 -0.934234,-0.17316 -1.372385,-0.46247 -2.22648,-1.47016 -0.584845,-0.69001 -1.013937,-1.293491 -0.95354,-1.34106 0.0604,-0.04757 2.074345,-0.895483 4.475439,-1.884252 5.698757,-2.3467468 5.646437,-2.3469738 11.450377,0.04974 l 4.43892,1.833036 -1.101,1.353476 c -0.88643,1.08971 -1.339,1.41126 -2.32225,1.65 -1.56341,0.37959 -9.84475,0.56814 -11.40771,0.25974 z"
       id="path6" /><path
       style="fill:#006680"
       d="m 85.711686,101.76664 c 0,-1.38246 0.0446,-1.947998 0.0991,-1.25678 0.0545,0.69123 0.0545,1.82233 0,2.51356 -0.0545,0.69123 -0.0991,0.12568 -0.0991,-1.25678 z m -46.305021,-0.52917 c 0,-1.23693 0.04558,-1.742948 0.10128,-1.12448 0.0557,0.61846 0.0557,1.6305 0,2.24896 -0.0557,0.61848 -0.10128,0.11245 -0.10128,-1.12448 z m 46.449801,-15.128248 -0.10787,-9.4397 -10.186464,4.39085 -10.18646,4.39086 -2.51354,0.0218 -2.51354,0.0218 -10.275793,-4.43177 c -5.651685,-2.43748 -10.384419,-4.43177 -10.517187,-4.43177 -0.140105,0 -0.257504,3.85795 -0.279785,9.19427 l -0.03839,9.19427 -0.333339,-9.65729 c -1.148443,-33.27188 -1.159734,-34.2895 -0.402645,-36.28764 0.566246,-1.49446 0.566673,-1.49483 1.356334,-1.19677 0.560753,0.21166 0.738227,0.41508 0.611758,0.70118 -1.138838,2.5763 -1.165163,2.8611 -1.092798,11.82267 l 0.06976,8.63891 9.524999,4.00344 c 5.23875,2.2019 10.120316,4.29553 10.847916,4.65254 1.00808,0.49461 1.73221,0.64566 3.04271,0.63469 1.62349,-0.0136 2.31244,-0.26783 12.30312,-4.54012 l 10.583344,-4.52572 v -9.21565 c 0,-8.98889 -0.0143,-9.24243 -0.5821,-10.30369 l -0.58209,-1.08803 0.62814,-0.2862 c 0.77292,-0.35217 0.97155,-0.14433 1.59455,1.66851 0.62183,1.80942 0.59394,3.75744 -0.515,35.98333 l -0.32777,9.525 z M 12.998314,65.148112 c -3.6539175,-1.57662 -3.3940555,-1.15352 -3.7012945,-6.02637 l -0.178126,-2.82511 3.2575575,1.38473 3.257558,1.38474 0.294505,3.68933 c 0.161977,2.02913 0.28104,3.70484 0.264583,3.7238 -0.01646,0.019 -1.454109,-0.58004 -3.194783,-1.33112 z m 96.067926,0.0399 c 0.0706,-0.76399 0.21082,-2.43858 0.31161,-3.72131 l 0.18325,-2.33225 3.01153,-1.29904 c 1.65635,-0.71448 3.20416,-1.3602 3.43959,-1.43494 0.38895,-0.12348 0.40388,0.20552 0.16346,3.60242 l -0.26459,3.73832 -3.29336,1.41793 c -1.81136,0.77986 -3.38033,1.41793 -3.48662,1.41793 -0.10628,0 -0.13547,-0.62508 -0.0649,-1.38906 z M 74.900672,43.440144 c -3.20146,-1.61505 -7.28078,-3.55705 -9.06516,-4.31555 l -3.24432,-1.37911 -5.8838,2.66238 c -3.236091,1.46431 -7.214179,3.36751 -8.840195,4.22933 -1.626016,0.861818 -3.188459,1.566938 -3.472096,1.566938 -0.283636,0 -1.086409,-0.25245 -1.783939,-0.561 -1.26588,-0.559958 -1.26715,-0.561818 -0.683751,-1.001878 1.178523,-0.88896 8.758264,-4.83064 13.261758,-6.89649 4.472953,-2.05184 4.697163,-2.12396 6.603543,-2.12396 1.9205,0 2.11545,0.0644 7.27608,2.40216 6.60296,2.99118 14.285324,7.16489 13.746194,7.468108 -0.20827,0.11714 -0.7645,0.3643 -1.23607,0.54925 -0.82964,0.32538 -1.0459,0.24119 -6.678244,-2.600178 z"
       id="path5" /></g></svg>
