<?xml version="1.0" encoding="UTF-8" standalone="no"?>
<!-- Created with Inkscape (http://www.inkscape.org/) -->

<svg
   width="53mm"
   height="50mm"
   viewBox="0 0 53 50"
   version="1.1"
   id="svg1"
   inkscape:version="1.3 (0e150ed6c4, 2023-07-21)"
   sodipodi:docname="logo.svg"
   xmlns:inkscape="http://www.inkscape.org/namespaces/inkscape"
   xmlns:sodipodi="http://sodipodi.sourceforge.net/DTD/sodipodi-0.dtd"
   xmlns:xlink="http://www.w3.org/1999/xlink"
   xmlns="http://www.w3.org/2000/svg"
   xmlns:svg="http://www.w3.org/2000/svg">
  <sodipodi:namedview
     id="namedview1"
     pagecolor="#ffffff"
     bordercolor="#000000"
     borderopacity="0.25"
     inkscape:showpageshadow="2"
     inkscape:pageopacity="0.0"
     inkscape:pagecheckerboard="0"
     inkscape:deskcolor="#d1d1d1"
     inkscape:document-units="mm"
     inkscape:zoom="0.71090067"
     inkscape:cx="396.67989"
     inkscape:cy="561.25984"
     inkscape:window-width="1863"
     inkscape:window-height="1010"
     inkscape:window-x="57"
     inkscape:window-y="34"
     inkscape:window-maximized="1"
     inkscape:current-layer="layer1" />
  <defs
     id="defs1">
    <linearGradient
       inkscape:collect="always"
       xlink:href="#linearGradient72"
       id="linearGradient73"
       x1="260.78989"
       y1="196.96074"
       x2="299.37161"
       y2="249.87421"
       gradientUnits="userSpaceOnUse" />
    <linearGradient
       id="linearGradient72"
       inkscape:collect="always">
      <stop
         style="stop-color:#2f2e41;stop-opacity:1;"
         offset="0"
         id="stop72" />
      <stop
         style="stop-color:#2f2e41;stop-opacity:0;"
         offset="1"
         id="stop73" />
    </linearGradient>
  </defs>
  <g
     inkscape:label="Camada 1"
     inkscape:groupmode="layer"
     id="layer1">
    <g
       id="g2"
       transform="matrix(0.26458333,0,0,0.26458333,-48.474476,-17.609634)">
      <circle
         id="b6132315-04e2-4cdb-a713-107c9cd58b0b"
         data-name="ab6171fa-7d69-4734-b81c-8dff60f9761b"
         cx="282.81439"
         cy="176.73277"
         r="68.321854"
         fill="#ffb6b6"
         style="fill:#ffccaa;fill-opacity:1" />
      <path
         id="f4304bdd-ba2d-4fff-b404-410205410c5d-267"
         data-name="bf427902-b9bf-4946-b5d7-5c1c7e04535e"
         d="m 517.37694,206.2256 c 0,0 17.8694,-34.16091 -21.44383,-37.26649 0,0 -33.51489,-30.40228 -67.6758,-5.558 0,0 -18.63322,0 -28.82254,21.08567 0,0 -14.655,-5.558 -17.87551,9.31661 0,0 -10.72349,31.05546 0,59.00533 10.72348,27.94992 14.28537,31.05537 14.28537,31.05537 0,0 -17.6209,-58.59838 25.26991,-61.704 42.89081,-3.10562 90.8867,-29.90942 94.46114,4.25144 3.57444,34.16086 8.95329,42.57784 8.95329,42.57784 0,0 33.94958,-48.78877 -7.15203,-62.76377 z"
         transform="translate(-174.73099,-79.58524)"
         fill="#2f2e41" />
      <path
         d="m 540.399,252.58481 h -5 c 0,-37.8 -37.41,-62.57 -75.15,-62.59 a 82.38227,82.38227 0 0 0 -16.35,1.59 c -6.06,1.21 -12.35,2.66 -18.53,4.55 -24.37,7.47 -46.97,21.91 -46.97,56.45 a 78.591,78.591 0 0 0 2.54,19.88 l -4.84,1.26 a 83.87572,83.87572 0 0 1 -2.7,-21.14 c 0,-30.18 12.39,-50.91 33.79,-63.27 11.25,-6.5 24.98,-10.69 40.71,-12.73 a 97.13079,97.13079 0 0 1 19.75,-0.6 c 43.4,3.11996 72.75,36.39998 72.75,76.6 z"
         transform="translate(-174.73099,-79.58524)"
         fill="#ff8f00"
         id="path62" />
      <path
         d="m 548.729,255.35477 -1.97,-14.56 a 15.71013,15.71013 0 0 0 -5,-9.56 15.81566,15.81566 0 0 0 -13.25,-4 l -3.13,0.43 a 6.52426,6.52426 0 0 0 -4.35,2.53 6.548,6.548 0 0 0 -1.29,4.87 l 4.55,33.54 a 6.57712,6.57712 0 0 0 5.3,5.57 6.15442,6.15442 0 0 0 1.22,0.12 6.49883,6.49883 0 0 0 0.88,-0.06 l 3.5,-0.47 a 15.79135,15.79135 0 0 0 10.74,-6.43 c 0.27,-0.38 0.53,-0.77 0.77,-1.17005 a 16.7484,16.7484 0 0 0 2.03,-10.80995 z"
         transform="translate(-174.73099,-79.58524)"
         fill="#ff8f00"
         id="path63" />
      <path
         d="m 523.359,228.27481 a 6.4317,6.4317 0 0 0 -2.33,1.92 6.548,6.548 0 0 0 -1.29,4.87 l 4.55,33.54 a 6.57712,6.57712 0 0 0 5.3,5.57 z"
         transform="translate(-174.73099,-79.58524)"
         fill="#fff"
         id="path64"
         style="fill:#333333" />
      <path
         d="m 548.729,255.35477 -1.97,-14.56 a 15.71013,15.71013 0 0 0 -5,-9.56 l 4.53,33.37 a 6.17592,6.17592 0 0 0 0.41,1.56 16.7484,16.7484 0 0 0 2.03,-10.81 z"
         transform="translate(-174.73099,-79.58524)"
         fill="#3f3d56"
         id="path65" />
      <ellipse
         cx="532.21832"
         cy="258.909"
         rx="2.5"
         ry="7"
         transform="rotate(-7.72549,-144.4933,1513.0377)"
         fill="#3f3d56"
         id="ellipse65" />
      <ellipse
         cx="529.21832"
         cy="240.90901"
         rx="2.5"
         ry="7"
         transform="rotate(-7.72549,-147.49324,1495.0377)"
         fill="#3f3d56"
         id="ellipse66" />
      <ellipse
         cx="548.21832"
         cy="247.90901"
         rx="2.5"
         ry="7"
         transform="rotate(-7.72549,-128.49323,1502.0377)"
         fill="#3f3d56"
         id="ellipse67" />
      <path
         d="m 460.249,189.99478 a 82.38227,82.38227 0 0 0 -16.35,1.59 c -6.06,1.21 -12.35,2.66 -18.53,4.55 -9.65,-0.47 -16.75,-2.97 -18.18,-6.82 11.25,-6.5 24.98,-10.69 40.71,-12.73 a 97.13079,97.13079 0 0 1 19.75,-0.6 5.727,5.727 0 0 1 2.72,3.82 c 0.47,3.48004 -3.5,7.17999 -10.12,10.19 z"
         transform="translate(-174.73099,-79.58524)"
         fill="#3f3d56"
         id="path67" />
      <path
         d="m 396.409,287.28482 -7.7,-32.01 a 6.02367,6.02367 0 0 0 -4.88,-4.55 6.73326,6.73326 0 0 0 -1,-0.08 6.02576,6.02576 0 0 0 -1.4,0.17 l -2.98,0.72 a 14.904,14.904 0 0 0 -10.99,17.96 l 3.45,14.36 a 15.84509,15.84509 0 0 0 5.34,8.62005 14.045,14.045 0 0 0 1.36,0.97 14.80921,14.80921 0 0 0 11.37,1.84 l 2.97,-0.72 a 5.84014,5.84014 0 0 0 2.17,-1.01 5.99327,5.99327 0 0 0 2.29,-6.27005 z"
         transform="translate(-174.73099,-79.58524)"
         fill="#ff8f00"
         id="path68" />
      <ellipse
         cx="378.62897"
         cy="274.52322"
         rx="2.5"
         ry="7"
         transform="rotate(-13.53051,-44.177403,971.19806)"
         fill="#3f3d56"
         id="ellipse68" />
      <ellipse
         cx="368.62897"
         cy="277.52322"
         rx="2.5"
         ry="7"
         transform="rotate(-13.53051,-54.177411,974.19804)"
         fill="#3f3d56"
         id="ellipse69" />
      <path
         d="m 396.899,287.16476 -7.7,-32.01 a 6.53174,6.53174 0 0 0 -5.29,-4.92 l 10.51,43.72 a 6.5111,6.5111 0 0 0 2.48,-6.79 z"
         transform="translate(-174.73099,-79.58524)"
         fill="#fff"
         id="path69"
         style="fill:#333333" />
      <path
         d="m 369.199,263.15481 a 6.476,6.476 0 0 0 -1.17,-2.45 14.72545,14.72545 0 0 0 -0.57,8.79 l 3.45,14.36 a 15.84509,15.84509 0 0 0 5.34,8.62005 z"
         transform="translate(-174.73099,-79.58524)"
         fill="#3f3d56"
         id="path70" />
      <path
         style="fill:#2f2e41;fill-opacity:1"
         d="m 253.42672,223.41343 c -1.49717,-5.13972 4.1138,-10.36396 8.22291,-13.7952 4.04784,-3.38008 9.68157,-4.34495 14.81634,-5.54667 7.18842,-1.68234 16.13782,-4.70045 23.5029,-5.20961 5.95203,-0.41147 10.508,1.4919 16.41772,2.31118 3.74176,0.51873 8.36982,0.57425 10.78561,3.47835 1.37468,1.65254 1.67433,4.41885 0.82895,6.3952 -0.50287,1.17562 -1.83898,2.01428 -3.09165,2.27078 -4.06764,0.83291 -8.0062,-2.34559 -12.12938,-2.83432 -7.3429,-0.87038 -14.97894,-1.81105 -22.18246,-0.14221 -9.78408,2.26668 -17.90363,9.11174 -26.9747,13.42241 -1.65268,0.78537 -3.17045,2.30336 -4.99986,2.26599 -1.93882,-0.0396 -4.65404,-0.75406 -5.19638,-2.6159 z"
         id="path72"
         sodipodi:nodetypes="sssssssssssss" />
      <path
         style="fill:url(#linearGradient73);fill-opacity:1;stroke-width:0.763425"
         d="m 325.22504,231.48335 c 1.25644,3.2479 -5.63055,3.38568 -9.53832,5.46369 -3.8495,2.04702 -17.10352,6.67486 -21.90587,7.33734 -6.72304,0.92743 -7.6436,0.42705 -14.50004,0.61608 -2.98327,0.0822 -22.94594,-2.64532 -25.20711,-7.13805 -0.39654,-0.78786 1.24205,-2.22435 2.41265,-2.36299 3.80119,-0.45017 7.37736,1.61162 11.19554,1.9908 6.79971,0.67528 13.86993,1.3998 20.60665,0.48109 9.15005,-1.24783 16.87345,-5.39468 25.41456,-7.93622 1.55613,-0.46304 3.0061,-1.38767 4.70488,-1.33191 1.80038,0.0591 6.36193,1.70364 6.81706,2.88017 z"
         id="path72-3"
         sodipodi:nodetypes="sssssssssss" />
    </g>
  </g>
</svg>
